<?xml version="1.0" encoding="iso-8859-1"?>
<!-- Generator: Adobe Illustrator 19.0.0, SVG Export Plug-In . SVG Version: 6.00 Build 0)  -->
<svg version="1.1" id="Capa_1" xmlns="http://www.w3.org/2000/svg" xmlns:xlink="http://www.w3.org/1999/xlink" x="0px" y="0px"
	 viewBox="0 0 512 512" style="enable-background:new 0 0 512 512;" xml:space="preserve">
<path style="fill:#FFD681;" d="M390.093,203.825c0,35.004-13.241,66.899-34.96,90.877c-7.673,10.422-15.277,20.75-22.95,31.172
	C311.315,362.428,301.48,398.5,301.48,398.5h-90.96c0,0-9.833-36.067-30.699-72.619c-7.719-10.474-15.368-20.852-23.086-31.325
	c-21.641-23.961-34.828-55.798-34.828-90.731c0-74.76,60.406-135.337,134.781-134.964
	C330.741,69.231,390.094,129.292,390.093,203.825z"/>
<path style="fill:#FFBD2A;" d="M256.688,68.86c-5.286-0.026-10.499,0.265-15.627,0.838c67.212,7.484,119.033,64.484,119.033,134.127
	c0,35.004-13.241,66.899-34.96,90.877c-7.673,10.422-15.277,20.75-22.95,31.172C281.315,362.428,271.48,398.5,271.48,398.5h30
	c0,0,9.835-36.072,30.703-72.626c7.673-10.422,15.277-20.75,22.95-31.172c21.719-23.978,34.96-55.873,34.96-90.877
	C390.094,129.292,330.741,69.231,256.688,68.86z"/>
<polygon style="fill:#A85759;" points="299.451,504.5 212.549,504.5 206,474.5 306,474.5 "/>
<polygon style="fill:#53575D;" points="275.667,474.5 269.118,504.5 299.451,504.5 306,474.5 "/>
<rect x="195" y="384.5" style="fill:#FF993B;" width="122" height="90"/>
<rect x="287" y="384.5" style="fill:#FF7B48;" width="30" height="90"/>
<rect x="184" y="414.5" style="fill:#FF5A51;" width="144" height="30"/>
<rect x="298" y="414.5" style="fill:#E75955;" width="30" height="30"/>
<path d="M183.007,330.202c3.334-2.458,4.044-7.154,1.585-10.488l-21.825-29.604c-0.146-0.199-0.304-0.392-0.47-0.575
	c-21.207-23.491-32.887-53.931-32.887-85.714c0-34.33,13.357-66.526,37.611-90.66c23.866-23.749,55.443-36.801,88.988-36.801
	c0.213,0,0.431,0,0.644,0.001c41.749,0.209,80.645,20.983,104.045,55.57c2.322,3.431,6.983,4.331,10.415,2.009
	c3.431-2.321,4.33-6.984,2.009-10.415c-26.178-38.692-69.689-61.931-116.395-62.165c-37.789-0.203-73.418,14.432-100.286,41.167
	c-27.104,26.97-42.031,62.943-42.031,101.293c0,35.378,12.959,69.272,36.501,95.486l21.608,29.311
	c1.471,1.994,3.741,3.049,6.042,3.049C180.107,331.666,181.667,331.189,183.007,330.202z"/>
<path d="M388.328,152.853c-1.467-3.875-5.798-5.825-9.669-4.36c-3.874,1.466-5.826,5.795-4.36,9.669
	c5.502,14.538,8.291,29.902,8.291,45.668c0,31.843-11.727,62.327-33.019,85.835c-0.171,0.188-0.331,0.384-0.481,0.589l-5.032,6.837
	c-5.971,8.112-11.918,16.193-17.915,24.329c-0.173,0.235-0.333,0.48-0.478,0.734c-11.519,20.191-19.766,40.22-25.047,54.846h-89.256
	c-3.444-9.555-7.275-19.035-11.468-28.242c-1.717-3.769-6.164-5.435-9.934-3.717c-3.77,1.717-5.434,6.165-3.717,9.934
	c3.691,8.105,6.751,15.673,9.153,22.025H195c-4.143,0-7.5,3.358-7.5,7.5V407H184c-4.143,0-7.5,3.358-7.5,7.5v30
	c0,4.142,3.357,7.5,7.5,7.5h3.5v22.5c0,4.142,3.357,7.5,7.5,7.5h4.961l5.261,24.1c0.752,3.444,3.802,5.9,7.327,5.9h86.902
	c3.525,0,6.575-2.456,7.327-5.9l5.261-24.1H317c4.143,0,7.5-3.358,7.5-7.5V452h3.5c4.143,0,7.5-3.358,7.5-7.5v-30
	c0-4.142-3.357-7.5-7.5-7.5h-3.5v-22.5c0-4.142-3.357-7.5-7.5-7.5h-0.391c5.025-13.3,12.251-30.114,21.87-47.035
	c5.911-8.019,11.774-15.986,17.66-23.983l4.809-6.534c23.634-26.233,36.643-60.174,36.643-95.619
	C397.59,186.244,394.474,169.093,388.328,152.853z M293.412,497h-74.824l-3.274-15h81.373L293.412,497z M309.5,467L309.5,467h-107
	l0,0v-15h107V467z M256,407c-4.143,0-7.5,3.358-7.5,7.5s3.357,7.5,7.5,7.5h64.5v15h-129v-15h32.333c4.143,0,7.5-3.358,7.5-7.5
	s-3.357-7.5-7.5-7.5H202.5v-15l0,0c0.009,0,3.572,0.002,3.58,0.002S202.492,392,202.5,392h103.396c0.008,0,0.016,0.002,0.024,0.002
	s0.017-0.002,0.025-0.002h3.555v15H256z"/>
<path d="M256,49.31c4.143,0,7.5-3.358,7.5-7.5V7.5c0-4.142-3.357-7.5-7.5-7.5s-7.5,3.358-7.5,7.5v34.31
	C248.5,45.952,251.857,49.31,256,49.31z"/>
<path d="M164.16,68.437c1.39,2.406,3.91,3.751,6.502,3.751c1.272,0,2.563-0.324,3.743-1.006c3.587-2.071,4.816-6.658,2.745-10.245
	l-17.155-29.713c-2.072-3.588-6.659-4.816-10.245-2.745c-3.587,2.071-4.816,6.658-2.745,10.245L164.16,68.437z"/>
<path d="M74.715,116.394l29.713,17.155c1.181,0.682,2.471,1.006,3.743,1.006c2.592,0,5.113-1.345,6.502-3.751
	c2.071-3.587,0.842-8.174-2.745-10.245l-29.713-17.155c-3.586-2.072-8.176-0.843-10.245,2.745
	C69.898,109.736,71.128,114.323,74.715,116.394z"/>
<path d="M437.285,308.404l-29.713-17.155c-3.59-2.072-8.175-0.842-10.245,2.745c-2.071,3.587-0.842,8.174,2.745,10.245
	l29.713,17.155c1.182,0.682,2.471,1.006,3.743,1.006c2.592,0,5.113-1.346,6.502-3.751
	C442.102,315.062,440.872,310.475,437.285,308.404z"/>
<path d="M92.81,212.2c0-4.142-3.357-7.5-7.5-7.5H51c-4.143,0-7.5,3.358-7.5,7.5s3.357,7.5,7.5,7.5h34.31
	C89.452,219.7,92.81,216.342,92.81,212.2z"/>
<path d="M461,204.7h-34.31c-4.143,0-7.5,3.358-7.5,7.5s3.357,7.5,7.5,7.5H461c4.143,0,7.5-3.358,7.5-7.5S465.143,204.7,461,204.7z"
	/>
<path d="M104.428,290.815L74.715,307.97c-3.587,2.071-4.816,6.658-2.745,10.245c1.389,2.406,3.91,3.751,6.502,3.751
	c1.272,0,2.563-0.324,3.743-1.006l29.713-17.155c3.587-2.071,4.816-6.658,2.745-10.245
	C112.603,289.973,108.014,288.744,104.428,290.815z"/>
<path d="M403.829,134.122c1.272,0,2.563-0.324,3.743-1.006l29.713-17.155c3.587-2.071,4.816-6.658,2.745-10.245
	c-2.07-3.588-6.66-4.817-10.245-2.745l-29.713,17.155c-3.587,2.071-4.816,6.658-2.745,10.245
	C398.716,132.776,401.237,134.122,403.829,134.122z"/>
<path d="M337.595,70.431c1.182,0.682,2.471,1.006,3.743,1.006c2.592,0,5.113-1.345,6.502-3.751l17.155-29.713
	c2.071-3.587,0.842-8.174-2.745-10.245c-3.589-2.072-8.175-0.843-10.245,2.745L334.85,60.186
	C332.778,63.772,334.008,68.36,337.595,70.431z"/>
<path d="M222.829,169.931c-2.606-3.22-7.328-3.717-10.548-1.11l-42,34c-1.759,1.424-2.781,3.566-2.781,5.829
	s1.022,4.405,2.781,5.829l42,34c1.389,1.125,3.057,1.671,4.714,1.671c2.186,0,4.353-0.951,5.834-2.782
	c2.606-3.219,2.109-7.942-1.11-10.548l-34.799-28.17l34.799-28.171C224.938,177.873,225.436,173.15,222.829,169.931z"/>
<path d="M289.171,247.369c1.482,1.831,3.648,2.782,5.834,2.782c1.657,0,3.325-0.547,4.714-1.671l42-34
	c1.759-1.424,2.781-3.566,2.781-5.829s-1.022-4.405-2.781-5.829l-42-34c-3.22-2.607-7.942-2.109-10.548,1.11
	c-2.606,3.219-2.109,7.942,1.11,10.548l34.799,28.171l-34.799,28.171C287.062,239.427,286.564,244.149,289.171,247.369z"/>
<path d="M272.081,150.756l-46,110c-1.599,3.821,0.204,8.215,4.025,9.813c0.945,0.396,1.926,0.583,2.891,0.583
	c2.934,0,5.72-1.732,6.922-4.608l46-110c1.599-3.821-0.204-8.215-4.025-9.813C278.074,145.134,273.679,146.935,272.081,150.756z"/>
<g>
</g>
<g>
</g>
<g>
</g>
<g>
</g>
<g>
</g>
<g>
</g>
<g>
</g>
<g>
</g>
<g>
</g>
<g>
</g>
<g>
</g>
<g>
</g>
<g>
</g>
<g>
</g>
<g>
</g>
</svg>
